<?xml version="1.0" encoding="iso-8859-1"?>
<!-- Generator: Adobe Illustrator 19.0.0, SVG Export Plug-In . SVG Version: 6.00 Build 0)  -->
<svg version="1.1" id="Capa_1" xmlns="http://www.w3.org/2000/svg" xmlns:xlink="http://www.w3.org/1999/xlink" x="0px" y="0px"
	 viewBox="0 0 511.997 511.997" style="enable-background:new 0 0 511.997 511.997;" xml:space="preserve">
<polygon style="fill:#FFDB0C;" points="461.546,358.494 488.623,181.47 418.964,252.289 399.536,128.762 310.874,235.145 
	256,82.009 201.126,235.145 112.464,128.762 93.036,252.289 23.377,181.47 50.454,358.494 50.454,405.928 461.546,405.928 "/>
<polygon style="fill:#FBBF00;" points="461.546,358.494 488.623,181.47 418.964,252.289 399.536,128.762 310.874,235.145 
	256,82.009 256,405.928 461.546,405.928 "/>
<rect x="50.45" y="358.497" style="fill:#FFA900;" width="411.09" height="94.87"/>
<g>
	<rect x="256" y="358.497" style="fill:#FF8800;" width="205.55" height="94.87"/>
	<circle style="fill:#FF8800;" cx="23.377" cy="181.467" r="23.377"/>
</g>
<circle style="fill:#FF421D;" cx="112.46" cy="128.757" r="23.377"/>
<circle style="fill:#DE0418;" cx="256" cy="82.007" r="23.377"/>
<circle style="fill:#870215;" cx="488.62" cy="181.467" r="23.377"/>
<circle style="fill:#A3021A;" cx="399.54" cy="128.757" r="23.377"/>
<g>
</g>
<g>
</g>
<g>
</g>
<g>
</g>
<g>
</g>
<g>
</g>
<g>
</g>
<g>
</g>
<g>
</g>
<g>
</g>
<g>
</g>
<g>
</g>
<g>
</g>
<g>
</g>
<g>
</g>
</svg>
